<svg xmlns="http://www.w3.org/2000/svg" viewBox="0 0 24 24" fill="none" stroke="currentColor" stroke-width="1.6" stroke-linecap="round" stroke-linejoin="round">
  <path d="M8 5.5c-2 .4-3.4 1-3.4 1-1.5 3-1.9 6-1.7 8.9 0 0 1.4 1.2 4.1 1.6l.7-1.3"/>
  <path d="M16 5.5c2 .4 3.4 1 3.4 1 1.5 3 1.9 6 1.7 8.9 0 0-1.4 1.2-4.1 1.6l-.7-1.3"/>
  <path d="M8 15.3s1.6.9 4 .9 4-.9 4-.9"/>
  <ellipse cx="9" cy="12" rx="1.1" ry="1.3" fill="currentColor" stroke="none"/>
  <ellipse cx="15" cy="12" rx="1.1" ry="1.3" fill="currentColor" stroke="none"/>
</svg>
