<svg xmlns="http://www.w3.org/2000/svg" viewBox="0 0 24 24" fill="none" stroke="currentColor" stroke-width="1.6" stroke-linecap="round" stroke-linejoin="round">
  <path d="M12 3.2c-4.9 0-8.8 4-8.8 8.9 0 3.9 2.5 7.2 6 8.4.4.1.6-.2.6-.4v-1.6c-2.5.5-3-1.1-3-1.1-.4-1-1-1.3-1-1.3-.8-.6.1-.6.1-.6.9.1 1.4.9 1.4.9.8 1.4 2.2 1 2.7.8.1-.6.3-1 .6-1.3-2-.2-4.1-1-4.1-4.5 0-1 .3-1.8.9-2.5-.1-.2-.4-1.2.1-2.5 0 0 .8-.2 2.6 1a9 9 0 0 1 4.8 0c1.8-1.2 2.6-1 2.6-1 .5 1.3.2 2.3.1 2.5.6.7.9 1.5.9 2.5 0 3.5-2.1 4.3-4.1 4.5.3.3.6.9.6 1.8v2.6c0 .2.2.5.6.4 3.5-1.2 6-4.5 6-8.4 0-4.9-3.9-8.9-8.8-8.9Z"/>
</svg>
